<svg xmlns="http://www.w3.org/2000/svg" version="1.1" xmlns:xlink="http://www.w3.org/1999/xlink" xmlns:svgjs="http://svgjs.dev/svgjs" width="1500" height="727" viewBox="0 0 1500 727"><g transform="matrix(1,0,0,1,-0.9090909090909918,-0.38685460864513743)"><svg viewBox="0 0 396 192" data-background-color="#ffffff" preserveAspectRatio="xMidYMid meet" height="727" width="1500" xmlns="http://www.w3.org/2000/svg" xmlns:xlink="http://www.w3.org/1999/xlink"><g id="tight-bounds" transform="matrix(1,0,0,1,0.2400000000000091,0.10216792965593413)"><svg viewBox="0 0 395.52 191.79566414068813" height="191.79566414068813" width="395.52"><g><svg viewBox="0 0 397.4975999999999 192.75464246139154" height="191.79566414068813" width="395.52"><g><rect width="397.4975999999999" height="5.903820115128644" x="0" y="105.92947790403304" fill="#374151" opacity="1" stroke-width="0" stroke="transparent" fill-opacity="1" class="rect-qz-0" data-fill-palette-color="secondary" rx="1%" id="qz-0" data-palette-color="#374151"></rect></g><g transform="matrix(1,0,0,1,0.9887999999999693,127.28832449855602)"><svg viewBox="0 0 395.52 65.4663179628355" height="65.4663179628355" width="395.52"><g id="textblocktransform"><svg viewBox="0 0 395.52 65.4663179628355" height="65.4663179628355" width="395.52" id="textblock"><g><svg viewBox="0 0 395.52 65.4663179628355" height="65.4663179628355" width="395.52"><g transform="matrix(1,0,0,1,0,0)"><svg width="395.52" viewBox="2.4 -40.85 290.57000000000005 48.1" height="65.4663179628355" data-palette-color="#374151"><path d="M13.3 0.45L13.3 0.45Q9 0.45 6.63-1.35 4.25-3.15 3.33-6.2 2.4-9.25 2.4-13L2.4-13 2.4-27.3Q2.4-31.4 3.33-34.45 4.25-37.5 6.63-39.18 9-40.85 13.3-40.85L13.3-40.85Q17.1-40.85 19.33-39.45 21.55-38.05 22.53-35.45 23.5-32.85 23.5-29.2L23.5-29.2 23.5-26 18.15-26 18.15-28.85Q18.15-31.1 17.93-32.83 17.7-34.55 16.7-35.5 15.7-36.45 13.35-36.45L13.35-36.45Q10.95-36.45 9.85-35.43 8.75-34.4 8.43-32.52 8.1-30.65 8.1-28.15L8.1-28.15 8.1-12.1Q8.1-9.05 8.6-7.28 9.1-5.5 10.25-4.75 11.4-4 13.35-4L13.35-4Q15.65-4 16.65-5.03 17.65-6.05 17.9-7.85 18.15-9.65 18.15-12.05L18.15-12.05 18.15-15.05 23.5-15.05 23.5-12.05Q23.5-8.35 22.6-5.53 21.7-2.7 19.5-1.13 17.3 0.45 13.3 0.45ZM32.6 0.4L32.6 0.4Q30.9 0.4 29.95-0.5 29-1.4 28.62-2.75 28.25-4.1 28.25-5.5L28.25-5.5 28.25-28.9 33.6-28.9 33.6-7.1Q33.6-5.55 34.05-4.67 34.5-3.8 35.9-3.8L35.9-3.8Q36.8-3.8 37.77-4.33 38.75-4.85 39.65-5.6L39.65-5.6 39.65-28.9 45-28.9 45 0 39.65 0 39.65-2.85Q38.25-1.5 36.47-0.55 34.7 0.4 32.6 0.4ZM50.65 7.25L50 7.25 50 3.15Q51.95 3.15 53.1 2.98 54.25 2.8 54.75 2.33 55.25 1.85 55.25 1L55.25 1Q55.25 0.55 54.9-1 54.55-2.55 54.15-4.3L54.15-4.3 48.35-28.9 53.75-28.9 57.65-7.3 61.4-28.9 66.8-28.9 59.9 1.6Q59.45 3.7 58.25 4.93 57.05 6.15 55.17 6.7 53.3 7.25 50.65 7.25L50.65 7.25ZM83.34 0L68.94 0 68.94-3.6 77.79-24.9 69.84-24.9 69.84-28.9 83.54-28.9 83.54-26 74.64-4.05 83.34-4.05 83.34 0ZM110.09 0L99.29 0 99.29-40.5 108.59-40.5Q111.34-40.5 113.36-39.9 115.39-39.3 116.74-38.05 118.09-36.8 118.74-34.88 119.39-32.95 119.39-30.35L119.39-30.35Q119.39-27.85 118.76-26.03 118.14-24.2 116.86-23.15 115.59-22.1 113.59-21.8L113.59-21.8Q116.04-21.25 117.54-19.93 119.04-18.6 119.76-16.53 120.49-14.45 120.49-11.55L120.49-11.55Q120.49-8.95 119.89-6.8 119.29-4.65 118.01-3.15 116.74-1.65 114.76-0.83 112.79 0 110.09 0L110.09 0ZM104.94-19.3L104.94-4.05 108.74-4.05Q112.54-4.05 113.81-5.83 115.09-7.6 115.09-11.55L115.09-11.55Q115.09-14.1 114.41-15.83 113.74-17.55 112.26-18.43 110.79-19.3 108.29-19.3L108.29-19.3 104.94-19.3ZM104.94-36.3L104.94-23.6 108.29-23.6Q110.69-23.6 112.04-24.28 113.39-24.95 113.94-26.45 114.49-27.95 114.49-30.35L114.49-30.35Q114.49-33.15 113.64-34.4 112.79-35.65 110.99-35.98 109.19-36.3 106.29-36.3L106.29-36.3 104.94-36.3ZM132.99 0.4L132.99 0.4Q129.78 0.4 127.94-0.9 126.09-2.2 125.31-4.6 124.54-7 124.54-10.25L124.54-10.25 124.54-18.65Q124.54-21.9 125.31-24.3 126.09-26.7 127.94-28 129.78-29.3 132.99-29.3L132.99-29.3Q136.19-29.3 138.01-28 139.84-26.7 140.61-24.3 141.39-21.9 141.39-18.65L141.39-18.65 141.39-10.25Q141.39-7 140.61-4.6 139.84-2.2 138.01-0.9 136.19 0.4 132.99 0.4ZM132.99-3.55L132.99-3.55Q134.53-3.55 135.16-4.45 135.78-5.35 135.91-6.83 136.03-8.3 136.03-9.9L136.03-9.9 136.03-18.95Q136.03-20.6 135.91-22.05 135.78-23.5 135.16-24.43 134.53-25.35 132.99-25.35L132.99-25.35Q131.44-25.35 130.78-24.43 130.14-23.5 130.01-22.05 129.89-20.6 129.89-18.95L129.89-18.95 129.89-9.9Q129.89-8.3 130.01-6.83 130.14-5.35 130.78-4.45 131.44-3.55 132.99-3.55ZM154.23 0.4L154.23 0.4Q151.03 0.4 149.18-0.9 147.33-2.2 146.56-4.6 145.78-7 145.78-10.25L145.78-10.25 145.78-18.65Q145.78-21.9 146.56-24.3 147.33-26.7 149.18-28 151.03-29.3 154.23-29.3L154.23-29.3Q157.43-29.3 159.26-28 161.08-26.7 161.86-24.3 162.63-21.9 162.63-18.65L162.63-18.65 162.63-10.25Q162.63-7 161.86-4.6 161.08-2.2 159.26-0.9 157.43 0.4 154.23 0.4ZM154.23-3.55L154.23-3.55Q155.78-3.55 156.41-4.45 157.03-5.35 157.16-6.83 157.28-8.3 157.28-9.9L157.28-9.9 157.28-18.95Q157.28-20.6 157.16-22.05 157.03-23.5 156.41-24.43 155.78-25.35 154.23-25.35L154.23-25.35Q152.68-25.35 152.03-24.43 151.38-23.5 151.26-22.05 151.13-20.6 151.13-18.95L151.13-18.95 151.13-9.9Q151.13-8.3 151.26-6.83 151.38-5.35 152.03-4.45 152.68-3.55 154.23-3.55ZM172.98-0.05L167.63-0.05 167.63-40.55 172.98-40.55 172.98-16.4 180.78-28.9 186.38-28.9 179.58-17.6 186.18 0 180.83 0 175.43-14.8 172.98-11.1 172.98-0.05ZM210.43 0.45L210.43 0.45Q206.93 0.45 204.6-1.05 202.28-2.55 201.08-5.2 199.88-7.85 199.68-11.35L199.68-11.35 204.68-12.7Q204.83-10.55 205.35-8.55 205.88-6.55 207.08-5.28 208.28-4 210.43-4L210.43-4Q212.63-4 213.75-5.23 214.88-6.45 214.88-8.75L214.88-8.75Q214.88-11.5 213.63-13.18 212.38-14.85 210.48-16.55L210.48-16.55 203.68-22.55Q201.68-24.3 200.73-26.38 199.78-28.45 199.78-31.5L199.78-31.5Q199.78-35.95 202.33-38.4 204.88-40.85 209.28-40.85L209.28-40.85Q211.68-40.85 213.5-40.23 215.33-39.6 216.55-38.3 217.78-37 218.5-35.02 219.23-33.05 219.48-30.4L219.48-30.4 214.68-29.1Q214.53-31.1 214.08-32.77 213.63-34.45 212.5-35.48 211.38-36.5 209.28-36.5L209.28-36.5Q207.18-36.5 206-35.38 204.83-34.25 204.83-32.05L204.83-32.05Q204.83-30.2 205.45-29 206.08-27.8 207.48-26.55L207.48-26.55 214.33-20.55Q216.63-18.55 218.38-15.78 220.13-13 220.13-9.2L220.13-9.2Q220.13-6.2 218.88-4.03 217.63-1.85 215.45-0.7 213.28 0.45 210.43 0.45ZM231.77 0.4L231.77 0.4Q229.52 0.4 228.15-0.45 226.77-1.3 226.15-2.85 225.52-4.4 225.52-6.5L225.52-6.5 225.52-25.35 222.47-25.35 222.47-28.9 225.52-28.9 225.52-37.35 230.87-37.35 230.87-28.9 235.52-28.9 235.52-25.35 230.87-25.35 230.87-6.85Q230.87-5.15 231.42-4.42 231.97-3.7 233.52-3.7L233.52-3.7Q233.92-3.7 234.45-3.75 234.97-3.8 235.47-3.85L235.47-3.85 235.47 0.1Q234.47 0.25 233.62 0.33 232.77 0.4 231.77 0.4ZM247.42 0.4L247.42 0.4Q244.22 0.4 242.37-0.9 240.52-2.2 239.75-4.6 238.97-7 238.97-10.25L238.97-10.25 238.97-18.65Q238.97-21.9 239.75-24.3 240.52-26.7 242.37-28 244.22-29.3 247.42-29.3L247.42-29.3Q250.62-29.3 252.45-28 254.27-26.7 255.05-24.3 255.82-21.9 255.82-18.65L255.82-18.65 255.82-10.25Q255.82-7 255.05-4.6 254.27-2.2 252.45-0.9 250.62 0.4 247.42 0.4ZM247.42-3.55L247.42-3.55Q248.97-3.55 249.6-4.45 250.22-5.35 250.35-6.83 250.47-8.3 250.47-9.9L250.47-9.9 250.47-18.95Q250.47-20.6 250.35-22.05 250.22-23.5 249.6-24.43 248.97-25.35 247.42-25.35L247.42-25.35Q245.87-25.35 245.22-24.43 244.57-23.5 244.45-22.05 244.32-20.6 244.32-18.95L244.32-18.95 244.32-9.9Q244.32-8.3 244.45-6.83 244.57-5.35 245.22-4.45 245.87-3.55 247.42-3.55ZM266.22 0L260.87 0 260.87-28.9 266.22-28.9 266.22-24.8Q267.82-27.45 269.42-28.35 271.02-29.25 272.62-29.25L272.62-29.25Q272.82-29.25 272.99-29.25 273.17-29.25 273.47-29.2L273.47-29.2 273.47-23.3Q272.87-23.55 272.09-23.73 271.32-23.9 270.52-23.9L270.52-23.9Q269.27-23.9 268.24-23.33 267.22-22.75 266.22-21.1L266.22-21.1 266.22 0ZM284.77 0.4L284.77 0.4Q281.37 0.4 279.52-0.93 277.67-2.25 276.94-4.83 276.22-7.4 276.22-11.15L276.22-11.15 276.22-17.75Q276.22-21.6 276.97-24.15 277.72-26.7 279.59-28 281.47-29.3 284.77-29.3L284.77-29.3Q288.42-29.3 290.14-27.8 291.87-26.3 292.42-23.48 292.97-20.65 292.97-16.7L292.97-16.7 292.97-14.35 281.57-14.35 281.57-8.55Q281.57-6.8 281.89-5.7 282.22-4.6 282.94-4.08 283.67-3.55 284.82-3.55L284.82-3.55Q286.02-3.55 286.64-4.13 287.27-4.7 287.49-5.78 287.72-6.85 287.72-8.3L287.72-8.3 287.72-10.05 292.92-10.05 292.92-8.95Q292.92-4.6 291.07-2.1 289.22 0.4 284.77 0.4ZM281.57-18.8L281.57-17.25 287.72-17.25 287.72-19.85Q287.72-21.65 287.52-22.88 287.32-24.1 286.69-24.73 286.07-25.35 284.72-25.35L284.72-25.35Q283.42-25.35 282.74-24.75 282.07-24.15 281.82-22.73 281.57-21.3 281.57-18.8L281.57-18.8Z" opacity="1" transform="matrix(1,0,0,1,0,0)" fill="#374151" class="wordmark-text-0" data-fill-palette-color="primary" id="text-0"></path></svg></g></svg></g></svg></g></svg></g><g transform="matrix(1,0,0,1,139.049113471635,0)"><svg viewBox="0 0 119.3993730567299 90.47445142463867" height="90.47445142463867" width="119.3993730567299"><g><svg xmlns="http://www.w3.org/2000/svg" xmlns:xlink="http://www.w3.org/1999/xlink" version="1.1" x="8" y="0" viewBox="0 0 100 87.5" style="enable-background:new 0 0 100 87.5;" xml:space="preserve" width="103.3993730567299" height="90.47445142463867" class="icon-icon-0" data-fill-palette-color="accent" id="icon-0"><path d="M50 12.5C50 12.5 37.5 0 0 0v75c37.891 0 50 12.5 50 12.5S62.109 75 100 75V0C62.5 0 50 12.5 50 12.5zM12.5 12.5c15.888 1.33 25.635 5.005 31.25 7.983v50.342c-5.615-2.966-15.362-6.641-31.25-7.983V12.5zM87.5 62.842c-15.894 1.343-25.641 5.018-31.25 7.983V20.483c5.609-2.979 15.356-6.653 31.25-7.983V62.842z" fill="#374151" data-fill-palette-color="accent"></path></svg></g></svg></g><g><rect width="62.51599347163504" height="5.903820115128644" y="83.57063130951003" x="258.4484865283649" fill="#374151" data-fill-palette-color="secondary"></rect><rect width="62.51599347163504" height="5.903820115128644" y="83.57063130951003" x="76.53311999999997" fill="#374151" data-fill-palette-color="secondary"></rect></g></svg></g><defs></defs></svg><rect width="395.52" height="191.79566414068813" fill="none" stroke="none" visibility="hidden"></rect></g></svg></g></svg>